<?xml version="1.0" encoding="utf-8" standalone="no"?>
<!DOCTYPE svg PUBLIC "-//W3C//DTD SVG 1.1//EN"
  "http://www.w3.org/Graphics/SVG/1.1/DTD/svg11.dtd">
<svg xmlns:xlink="http://www.w3.org/1999/xlink" width="720pt" height="360pt" viewBox="0 0 720 360" xmlns="http://www.w3.org/2000/svg" version="1.1">
 <metadata>
  <rdf:RDF xmlns:dc="http://purl.org/dc/elements/1.1/" xmlns:cc="http://creativecommons.org/ns#" xmlns:rdf="http://www.w3.org/1999/02/22-rdf-syntax-ns#">
   <cc:Work>
    <dc:type rdf:resource="http://purl.org/dc/dcmitype/StillImage"/>
    <dc:date>2025-11-04T10:47:31.294741</dc:date>
    <dc:format>image/svg+xml</dc:format>
    <dc:creator>
     <cc:Agent>
      <dc:title>Matplotlib v3.9.2, https://matplotlib.org/</dc:title>
     </cc:Agent>
    </dc:creator>
   </cc:Work>
  </rdf:RDF>
 </metadata>
 <defs>
  <style type="text/css">*{stroke-linejoin: round; stroke-linecap: butt}</style>
 </defs>
 <g id="figure_1">
  <g id="patch_1">
   <path d="M 0 360 
L 720 360 
L 720 0 
L 0 0 
z
" style="fill: #ffffff"/>
  </g>
  <g id="axes_1">
   <g id="patch_2">
    <path d="M 70.22 318.04 
L 709.2 318.04 
L 709.2 25.44 
L 70.22 25.44 
z
" style="fill: #ffffff"/>
   </g>
   <g id="PathCollection_1">
    <defs>
     <path id="m96d6823b29" d="M 0 3 
C 0.795609 3 1.55874 2.683901 2.12132 2.12132 
C 2.683901 1.55874 3 0.795609 3 0 
C 3 -0.795609 2.683901 -1.55874 2.12132 -2.12132 
C 1.55874 -2.683901 0.795609 -3 0 -3 
C -0.795609 -3 -1.55874 -2.683901 -2.12132 -2.12132 
C -2.683901 -1.55874 -3 -0.795609 -3 0 
C -3 0.795609 -2.683901 1.55874 -2.12132 2.12132 
C -1.55874 2.683901 -0.795609 3 0 3 
z
" style="stroke: #1f77b4"/>
    </defs>
    <g clip-path="url(#p1b3360e007)">
     <use xlink:href="#m96d6823b29" x="99.264545" y="299.448595" style="fill: #1f77b4; stroke: #1f77b4"/>
     <use xlink:href="#m96d6823b29" x="102.222919" y="299.764136" style="fill: #1f77b4; stroke: #1f77b4"/>
     <use xlink:href="#m96d6823b29" x="104.894998" y="299.927474" style="fill: #1f77b4; stroke: #1f77b4"/>
     <use xlink:href="#m96d6823b29" x="107.853371" y="300.413364" style="fill: #1f77b4; stroke: #1f77b4"/>
     <use xlink:href="#m96d6823b29" x="110.716313" y="300.822494" style="fill: #1f77b4; stroke: #1f77b4"/>
     <use xlink:href="#m96d6823b29" x="113.674686" y="301.434512" style="fill: #1f77b4; stroke: #1f77b4"/>
     <use xlink:href="#m96d6823b29" x="116.537628" y="301.649022" style="fill: #1f77b4; stroke: #1f77b4"/>
     <use xlink:href="#m96d6823b29" x="119.496001" y="301.741631" style="fill: #1f77b4; stroke: #1f77b4"/>
     <use xlink:href="#m96d6823b29" x="122.454375" y="301.597834" style="fill: #1f77b4; stroke: #1f77b4"/>
     <use xlink:href="#m96d6823b29" x="125.317317" y="301.709304" style="fill: #1f77b4; stroke: #1f77b4"/>
     <use xlink:href="#m96d6823b29" x="128.27569" y="302.063812" style="fill: #1f77b4; stroke: #1f77b4"/>
     <use xlink:href="#m96d6823b29" x="131.138632" y="302.533586" style="fill: #1f77b4; stroke: #1f77b4"/>
     <use xlink:href="#m96d6823b29" x="134.097005" y="302.786799" style="fill: #1f77b4; stroke: #1f77b4"/>
     <use xlink:href="#m96d6823b29" x="137.055378" y="302.614124" style="fill: #1f77b4; stroke: #1f77b4"/>
     <use xlink:href="#m96d6823b29" x="139.727457" y="302.147427" style="fill: #1f77b4; stroke: #1f77b4"/>
     <use xlink:href="#m96d6823b29" x="142.685831" y="301.748128" style="fill: #1f77b4; stroke: #1f77b4"/>
     <use xlink:href="#m96d6823b29" x="145.548773" y="301.344671" style="fill: #1f77b4; stroke: #1f77b4"/>
     <use xlink:href="#m96d6823b29" x="148.507146" y="301.199648" style="fill: #1f77b4; stroke: #1f77b4"/>
     <use xlink:href="#m96d6823b29" x="151.370088" y="300.800339" style="fill: #1f77b4; stroke: #1f77b4"/>
     <use xlink:href="#m96d6823b29" x="154.328461" y="300.494322" style="fill: #1f77b4; stroke: #1f77b4"/>
     <use xlink:href="#m96d6823b29" x="157.286834" y="300.343086" style="fill: #1f77b4; stroke: #1f77b4"/>
     <use xlink:href="#m96d6823b29" x="160.149776" y="300.615468" style="fill: #1f77b4; stroke: #1f77b4"/>
     <use xlink:href="#m96d6823b29" x="163.10815" y="301.23392" style="fill: #1f77b4; stroke: #1f77b4"/>
     <use xlink:href="#m96d6823b29" x="165.971091" y="301.649341" style="fill: #1f77b4; stroke: #1f77b4"/>
     <use xlink:href="#m96d6823b29" x="168.929465" y="302.059438" style="fill: #1f77b4; stroke: #1f77b4"/>
     <use xlink:href="#m96d6823b29" x="171.887838" y="302.344555" style="fill: #1f77b4; stroke: #1f77b4"/>
     <use xlink:href="#m96d6823b29" x="174.559917" y="302.650833" style="fill: #1f77b4; stroke: #1f77b4"/>
     <use xlink:href="#m96d6823b29" x="177.51829" y="303.082966" style="fill: #1f77b4; stroke: #1f77b4"/>
     <use xlink:href="#m96d6823b29" x="180.381232" y="303.368312" style="fill: #1f77b4; stroke: #1f77b4"/>
     <use xlink:href="#m96d6823b29" x="183.339606" y="303.571528" style="fill: #1f77b4; stroke: #1f77b4"/>
     <use xlink:href="#m96d6823b29" x="186.202547" y="303.620846" style="fill: #1f77b4; stroke: #1f77b4"/>
     <use xlink:href="#m96d6823b29" x="189.160921" y="304.051592" style="fill: #1f77b4; stroke: #1f77b4"/>
     <use xlink:href="#m96d6823b29" x="192.119294" y="304.439544" style="fill: #1f77b4; stroke: #1f77b4"/>
     <use xlink:href="#m96d6823b29" x="194.982236" y="304.733046" style="fill: #1f77b4; stroke: #1f77b4"/>
     <use xlink:href="#m96d6823b29" x="197.940609" y="304.620263" style="fill: #1f77b4; stroke: #1f77b4"/>
     <use xlink:href="#m96d6823b29" x="200.803551" y="304.74" style="fill: #1f77b4; stroke: #1f77b4"/>
     <use xlink:href="#m96d6823b29" x="203.761924" y="304.446321" style="fill: #1f77b4; stroke: #1f77b4"/>
     <use xlink:href="#m96d6823b29" x="206.720298" y="303.863652" style="fill: #1f77b4; stroke: #1f77b4"/>
     <use xlink:href="#m96d6823b29" x="209.487808" y="302.900116" style="fill: #1f77b4; stroke: #1f77b4"/>
     <use xlink:href="#m96d6823b29" x="212.446181" y="302.196748" style="fill: #1f77b4; stroke: #1f77b4"/>
     <use xlink:href="#m96d6823b29" x="215.309123" y="301.556577" style="fill: #1f77b4; stroke: #1f77b4"/>
     <use xlink:href="#m96d6823b29" x="218.267497" y="300.750416" style="fill: #1f77b4; stroke: #1f77b4"/>
     <use xlink:href="#m96d6823b29" x="221.130438" y="300.018019" style="fill: #1f77b4; stroke: #1f77b4"/>
     <use xlink:href="#m96d6823b29" x="224.088812" y="299.522007" style="fill: #1f77b4; stroke: #1f77b4"/>
     <use xlink:href="#m96d6823b29" x="227.047185" y="299.077927" style="fill: #1f77b4; stroke: #1f77b4"/>
     <use xlink:href="#m96d6823b29" x="229.910127" y="298.312411" style="fill: #1f77b4; stroke: #1f77b4"/>
     <use xlink:href="#m96d6823b29" x="232.8685" y="297.345854" style="fill: #1f77b4; stroke: #1f77b4"/>
     <use xlink:href="#m96d6823b29" x="235.731442" y="296.642316" style="fill: #1f77b4; stroke: #1f77b4"/>
     <use xlink:href="#m96d6823b29" x="238.689815" y="296.121806" style="fill: #1f77b4; stroke: #1f77b4"/>
     <use xlink:href="#m96d6823b29" x="241.648189" y="295.481961" style="fill: #1f77b4; stroke: #1f77b4"/>
     <use xlink:href="#m96d6823b29" x="244.320268" y="294.581491" style="fill: #1f77b4; stroke: #1f77b4"/>
     <use xlink:href="#m96d6823b29" x="247.278641" y="293.618261" style="fill: #1f77b4; stroke: #1f77b4"/>
     <use xlink:href="#m96d6823b29" x="250.141583" y="292.504014" style="fill: #1f77b4; stroke: #1f77b4"/>
     <use xlink:href="#m96d6823b29" x="253.099956" y="291.022344" style="fill: #1f77b4; stroke: #1f77b4"/>
     <use xlink:href="#m96d6823b29" x="255.962898" y="289.653603" style="fill: #1f77b4; stroke: #1f77b4"/>
     <use xlink:href="#m96d6823b29" x="258.921271" y="288.519907" style="fill: #1f77b4; stroke: #1f77b4"/>
     <use xlink:href="#m96d6823b29" x="261.879645" y="287.720216" style="fill: #1f77b4; stroke: #1f77b4"/>
     <use xlink:href="#m96d6823b29" x="264.742587" y="286.548385" style="fill: #1f77b4; stroke: #1f77b4"/>
     <use xlink:href="#m96d6823b29" x="267.70096" y="285.198036" style="fill: #1f77b4; stroke: #1f77b4"/>
     <use xlink:href="#m96d6823b29" x="270.563902" y="283.747624" style="fill: #1f77b4; stroke: #1f77b4"/>
     <use xlink:href="#m96d6823b29" x="273.522275" y="282.515019" style="fill: #1f77b4; stroke: #1f77b4"/>
     <use xlink:href="#m96d6823b29" x="276.480648" y="281.4001" style="fill: #1f77b4; stroke: #1f77b4"/>
     <use xlink:href="#m96d6823b29" x="279.152727" y="280.079838" style="fill: #1f77b4; stroke: #1f77b4"/>
     <use xlink:href="#m96d6823b29" x="282.111101" y="278.803234" style="fill: #1f77b4; stroke: #1f77b4"/>
     <use xlink:href="#m96d6823b29" x="284.974043" y="277.342653" style="fill: #1f77b4; stroke: #1f77b4"/>
     <use xlink:href="#m96d6823b29" x="287.932416" y="275.92187" style="fill: #1f77b4; stroke: #1f77b4"/>
     <use xlink:href="#m96d6823b29" x="290.795358" y="274.450207" style="fill: #1f77b4; stroke: #1f77b4"/>
     <use xlink:href="#m96d6823b29" x="293.753731" y="273.386364" style="fill: #1f77b4; stroke: #1f77b4"/>
     <use xlink:href="#m96d6823b29" x="296.712104" y="272.477346" style="fill: #1f77b4; stroke: #1f77b4"/>
     <use xlink:href="#m96d6823b29" x="299.575046" y="271.547918" style="fill: #1f77b4; stroke: #1f77b4"/>
     <use xlink:href="#m96d6823b29" x="302.53342" y="270.080641" style="fill: #1f77b4; stroke: #1f77b4"/>
     <use xlink:href="#m96d6823b29" x="305.396361" y="268.602241" style="fill: #1f77b4; stroke: #1f77b4"/>
     <use xlink:href="#m96d6823b29" x="308.354735" y="267.234852" style="fill: #1f77b4; stroke: #1f77b4"/>
     <use xlink:href="#m96d6823b29" x="311.313108" y="265.796914" style="fill: #1f77b4; stroke: #1f77b4"/>
     <use xlink:href="#m96d6823b29" x="313.985187" y="264.278239" style="fill: #1f77b4; stroke: #1f77b4"/>
     <use xlink:href="#m96d6823b29" x="316.94356" y="262.67104" style="fill: #1f77b4; stroke: #1f77b4"/>
     <use xlink:href="#m96d6823b29" x="319.806502" y="261.130384" style="fill: #1f77b4; stroke: #1f77b4"/>
     <use xlink:href="#m96d6823b29" x="322.764876" y="259.735393" style="fill: #1f77b4; stroke: #1f77b4"/>
     <use xlink:href="#m96d6823b29" x="325.627817" y="258.361459" style="fill: #1f77b4; stroke: #1f77b4"/>
     <use xlink:href="#m96d6823b29" x="328.586191" y="256.954028" style="fill: #1f77b4; stroke: #1f77b4"/>
     <use xlink:href="#m96d6823b29" x="331.544564" y="255.296758" style="fill: #1f77b4; stroke: #1f77b4"/>
     <use xlink:href="#m96d6823b29" x="334.407506" y="253.30419" style="fill: #1f77b4; stroke: #1f77b4"/>
     <use xlink:href="#m96d6823b29" x="337.365879" y="251.223377" style="fill: #1f77b4; stroke: #1f77b4"/>
     <use xlink:href="#m96d6823b29" x="340.228821" y="249.279637" style="fill: #1f77b4; stroke: #1f77b4"/>
     <use xlink:href="#m96d6823b29" x="343.187194" y="247.557286" style="fill: #1f77b4; stroke: #1f77b4"/>
     <use xlink:href="#m96d6823b29" x="346.145568" y="245.991941" style="fill: #1f77b4; stroke: #1f77b4"/>
     <use xlink:href="#m96d6823b29" x="348.913078" y="244.534785" style="fill: #1f77b4; stroke: #1f77b4"/>
     <use xlink:href="#m96d6823b29" x="351.871451" y="242.764685" style="fill: #1f77b4; stroke: #1f77b4"/>
     <use xlink:href="#m96d6823b29" x="354.734393" y="240.942052" style="fill: #1f77b4; stroke: #1f77b4"/>
     <use xlink:href="#m96d6823b29" x="357.692767" y="238.930417" style="fill: #1f77b4; stroke: #1f77b4"/>
     <use xlink:href="#m96d6823b29" x="360.555708" y="237.15612" style="fill: #1f77b4; stroke: #1f77b4"/>
     <use xlink:href="#m96d6823b29" x="363.514082" y="235.420015" style="fill: #1f77b4; stroke: #1f77b4"/>
     <use xlink:href="#m96d6823b29" x="366.472455" y="233.544635" style="fill: #1f77b4; stroke: #1f77b4"/>
     <use xlink:href="#m96d6823b29" x="369.335397" y="231.413768" style="fill: #1f77b4; stroke: #1f77b4"/>
     <use xlink:href="#m96d6823b29" x="372.29377" y="228.94883" style="fill: #1f77b4; stroke: #1f77b4"/>
     <use xlink:href="#m96d6823b29" x="375.156712" y="226.41385" style="fill: #1f77b4; stroke: #1f77b4"/>
     <use xlink:href="#m96d6823b29" x="378.115085" y="224.195631" style="fill: #1f77b4; stroke: #1f77b4"/>
     <use xlink:href="#m96d6823b29" x="381.073459" y="222.149661" style="fill: #1f77b4; stroke: #1f77b4"/>
     <use xlink:href="#m96d6823b29" x="383.745538" y="220.348746" style="fill: #1f77b4; stroke: #1f77b4"/>
     <use xlink:href="#m96d6823b29" x="386.703911" y="218.19144" style="fill: #1f77b4; stroke: #1f77b4"/>
     <use xlink:href="#m96d6823b29" x="389.566853" y="216.495322" style="fill: #1f77b4; stroke: #1f77b4"/>
     <use xlink:href="#m96d6823b29" x="392.525226" y="214.80016" style="fill: #1f77b4; stroke: #1f77b4"/>
     <use xlink:href="#m96d6823b29" x="395.388168" y="213.588625" style="fill: #1f77b4; stroke: #1f77b4"/>
     <use xlink:href="#m96d6823b29" x="398.346541" y="212.437596" style="fill: #1f77b4; stroke: #1f77b4"/>
     <use xlink:href="#m96d6823b29" x="401.304915" y="211.381984" style="fill: #1f77b4; stroke: #1f77b4"/>
     <use xlink:href="#m96d6823b29" x="404.167857" y="210.120676" style="fill: #1f77b4; stroke: #1f77b4"/>
     <use xlink:href="#m96d6823b29" x="407.12623" y="208.270164" style="fill: #1f77b4; stroke: #1f77b4"/>
     <use xlink:href="#m96d6823b29" x="409.989172" y="206.031436" style="fill: #1f77b4; stroke: #1f77b4"/>
     <use xlink:href="#m96d6823b29" x="412.947545" y="204.012662" style="fill: #1f77b4; stroke: #1f77b4"/>
     <use xlink:href="#m96d6823b29" x="415.905918" y="202.348338" style="fill: #1f77b4; stroke: #1f77b4"/>
     <use xlink:href="#m96d6823b29" x="418.577997" y="200.937313" style="fill: #1f77b4; stroke: #1f77b4"/>
     <use xlink:href="#m96d6823b29" x="421.536371" y="199.515479" style="fill: #1f77b4; stroke: #1f77b4"/>
     <use xlink:href="#m96d6823b29" x="424.399313" y="198.232185" style="fill: #1f77b4; stroke: #1f77b4"/>
     <use xlink:href="#m96d6823b29" x="427.357686" y="197.229224" style="fill: #1f77b4; stroke: #1f77b4"/>
     <use xlink:href="#m96d6823b29" x="430.220628" y="196.403246" style="fill: #1f77b4; stroke: #1f77b4"/>
     <use xlink:href="#m96d6823b29" x="433.179001" y="195.747316" style="fill: #1f77b4; stroke: #1f77b4"/>
     <use xlink:href="#m96d6823b29" x="436.137374" y="195.073793" style="fill: #1f77b4; stroke: #1f77b4"/>
     <use xlink:href="#m96d6823b29" x="439.000316" y="194.229468" style="fill: #1f77b4; stroke: #1f77b4"/>
     <use xlink:href="#m96d6823b29" x="441.958689" y="193.065038" style="fill: #1f77b4; stroke: #1f77b4"/>
     <use xlink:href="#m96d6823b29" x="444.821631" y="191.797225" style="fill: #1f77b4; stroke: #1f77b4"/>
     <use xlink:href="#m96d6823b29" x="447.780005" y="190.804068" style="fill: #1f77b4; stroke: #1f77b4"/>
     <use xlink:href="#m96d6823b29" x="450.738378" y="190.09777" style="fill: #1f77b4; stroke: #1f77b4"/>
     <use xlink:href="#m96d6823b29" x="453.410457" y="189.244536" style="fill: #1f77b4; stroke: #1f77b4"/>
     <use xlink:href="#m96d6823b29" x="456.36883" y="188.122975" style="fill: #1f77b4; stroke: #1f77b4"/>
     <use xlink:href="#m96d6823b29" x="459.231772" y="187.270068" style="fill: #1f77b4; stroke: #1f77b4"/>
     <use xlink:href="#m96d6823b29" x="462.190145" y="186.952356" style="fill: #1f77b4; stroke: #1f77b4"/>
     <use xlink:href="#m96d6823b29" x="465.053087" y="186.863428" style="fill: #1f77b4; stroke: #1f77b4"/>
     <use xlink:href="#m96d6823b29" x="468.011461" y="186.295756" style="fill: #1f77b4; stroke: #1f77b4"/>
     <use xlink:href="#m96d6823b29" x="470.969834" y="185.221157" style="fill: #1f77b4; stroke: #1f77b4"/>
     <use xlink:href="#m96d6823b29" x="473.832776" y="183.767578" style="fill: #1f77b4; stroke: #1f77b4"/>
     <use xlink:href="#m96d6823b29" x="476.791149" y="182.240898" style="fill: #1f77b4; stroke: #1f77b4"/>
     <use xlink:href="#m96d6823b29" x="479.654091" y="180.711876" style="fill: #1f77b4; stroke: #1f77b4"/>
     <use xlink:href="#m96d6823b29" x="482.612464" y="179.10611" style="fill: #1f77b4; stroke: #1f77b4"/>
     <use xlink:href="#m96d6823b29" x="485.570838" y="177.595466" style="fill: #1f77b4; stroke: #1f77b4"/>
     <use xlink:href="#m96d6823b29" x="488.338348" y="176.067926" style="fill: #1f77b4; stroke: #1f77b4"/>
     <use xlink:href="#m96d6823b29" x="491.296721" y="174.96615" style="fill: #1f77b4; stroke: #1f77b4"/>
     <use xlink:href="#m96d6823b29" x="494.159663" y="174.467658" style="fill: #1f77b4; stroke: #1f77b4"/>
     <use xlink:href="#m96d6823b29" x="497.118037" y="174.076868" style="fill: #1f77b4; stroke: #1f77b4"/>
     <use xlink:href="#m96d6823b29" x="499.980978" y="173.118173" style="fill: #1f77b4; stroke: #1f77b4"/>
     <use xlink:href="#m96d6823b29" x="502.939352" y="171.142614" style="fill: #1f77b4; stroke: #1f77b4"/>
     <use xlink:href="#m96d6823b29" x="505.897725" y="168.14536" style="fill: #1f77b4; stroke: #1f77b4"/>
     <use xlink:href="#m96d6823b29" x="508.760667" y="164.693971" style="fill: #1f77b4; stroke: #1f77b4"/>
     <use xlink:href="#m96d6823b29" x="511.71904" y="160.407288" style="fill: #1f77b4; stroke: #1f77b4"/>
     <use xlink:href="#m96d6823b29" x="514.581982" y="156.21872" style="fill: #1f77b4; stroke: #1f77b4"/>
     <use xlink:href="#m96d6823b29" x="517.540355" y="151.716439" style="fill: #1f77b4; stroke: #1f77b4"/>
     <use xlink:href="#m96d6823b29" x="520.498729" y="147.287365" style="fill: #1f77b4; stroke: #1f77b4"/>
     <use xlink:href="#m96d6823b29" x="523.170808" y="142.302075" style="fill: #1f77b4; stroke: #1f77b4"/>
     <use xlink:href="#m96d6823b29" x="526.129181" y="136.603321" style="fill: #1f77b4; stroke: #1f77b4"/>
     <use xlink:href="#m96d6823b29" x="528.992123" y="129.697711" style="fill: #1f77b4; stroke: #1f77b4"/>
     <use xlink:href="#m96d6823b29" x="531.950496" y="122.382906" style="fill: #1f77b4; stroke: #1f77b4"/>
     <use xlink:href="#m96d6823b29" x="534.813438" y="115.202074" style="fill: #1f77b4; stroke: #1f77b4"/>
     <use xlink:href="#m96d6823b29" x="537.771811" y="109.130805" style="fill: #1f77b4; stroke: #1f77b4"/>
     <use xlink:href="#m96d6823b29" x="540.730185" y="103.763574" style="fill: #1f77b4; stroke: #1f77b4"/>
     <use xlink:href="#m96d6823b29" x="543.593126" y="98.53799" style="fill: #1f77b4; stroke: #1f77b4"/>
     <use xlink:href="#m96d6823b29" x="546.5515" y="92.901972" style="fill: #1f77b4; stroke: #1f77b4"/>
     <use xlink:href="#m96d6823b29" x="549.414442" y="87.352379" style="fill: #1f77b4; stroke: #1f77b4"/>
     <use xlink:href="#m96d6823b29" x="552.372815" y="80.685562" style="fill: #1f77b4; stroke: #1f77b4"/>
     <use xlink:href="#m96d6823b29" x="555.331188" y="73.403206" style="fill: #1f77b4; stroke: #1f77b4"/>
     <use xlink:href="#m96d6823b29" x="558.003267" y="65.100205" style="fill: #1f77b4; stroke: #1f77b4"/>
     <use xlink:href="#m96d6823b29" x="560.961641" y="56.962562" style="fill: #1f77b4; stroke: #1f77b4"/>
     <use xlink:href="#m96d6823b29" x="563.824582" y="49.371333" style="fill: #1f77b4; stroke: #1f77b4"/>
     <use xlink:href="#m96d6823b29" x="566.782956" y="42.831904" style="fill: #1f77b4; stroke: #1f77b4"/>
     <use xlink:href="#m96d6823b29" x="569.645898" y="39.22332" style="fill: #1f77b4; stroke: #1f77b4"/>
     <use xlink:href="#m96d6823b29" x="572.604271" y="38.74" style="fill: #1f77b4; stroke: #1f77b4"/>
     <use xlink:href="#m96d6823b29" x="575.562644" y="40.901041" style="fill: #1f77b4; stroke: #1f77b4"/>
     <use xlink:href="#m96d6823b29" x="578.425586" y="43.242686" style="fill: #1f77b4; stroke: #1f77b4"/>
     <use xlink:href="#m96d6823b29" x="581.383959" y="45.458058" style="fill: #1f77b4; stroke: #1f77b4"/>
     <use xlink:href="#m96d6823b29" x="584.246901" y="46.842555" style="fill: #1f77b4; stroke: #1f77b4"/>
     <use xlink:href="#m96d6823b29" x="587.205275" y="49.230672" style="fill: #1f77b4; stroke: #1f77b4"/>
     <use xlink:href="#m96d6823b29" x="590.163648" y="50.894859" style="fill: #1f77b4; stroke: #1f77b4"/>
     <use xlink:href="#m96d6823b29" x="592.835727" y="52.04894" style="fill: #1f77b4; stroke: #1f77b4"/>
     <use xlink:href="#m96d6823b29" x="595.7941" y="51.366955" style="fill: #1f77b4; stroke: #1f77b4"/>
     <use xlink:href="#m96d6823b29" x="598.657042" y="50.168913" style="fill: #1f77b4; stroke: #1f77b4"/>
     <use xlink:href="#m96d6823b29" x="601.615415" y="48.899028" style="fill: #1f77b4; stroke: #1f77b4"/>
     <use xlink:href="#m96d6823b29" x="604.478357" y="48.268328" style="fill: #1f77b4; stroke: #1f77b4"/>
     <use xlink:href="#m96d6823b29" x="607.436731" y="48.236523" style="fill: #1f77b4; stroke: #1f77b4"/>
     <use xlink:href="#m96d6823b29" x="610.395104" y="48.691135" style="fill: #1f77b4; stroke: #1f77b4"/>
     <use xlink:href="#m96d6823b29" x="613.258046" y="49.246771" style="fill: #1f77b4; stroke: #1f77b4"/>
     <use xlink:href="#m96d6823b29" x="616.216419" y="50.21547" style="fill: #1f77b4; stroke: #1f77b4"/>
     <use xlink:href="#m96d6823b29" x="619.079361" y="51.102862" style="fill: #1f77b4; stroke: #1f77b4"/>
     <use xlink:href="#m96d6823b29" x="622.037734" y="51.35091" style="fill: #1f77b4; stroke: #1f77b4"/>
     <use xlink:href="#m96d6823b29" x="624.996108" y="50.409974" style="fill: #1f77b4; stroke: #1f77b4"/>
     <use xlink:href="#m96d6823b29" x="627.763618" y="49.003235" style="fill: #1f77b4; stroke: #1f77b4"/>
     <use xlink:href="#m96d6823b29" x="630.721991" y="48.134899" style="fill: #1f77b4; stroke: #1f77b4"/>
     <use xlink:href="#m96d6823b29" x="633.584933" y="48.391275" style="fill: #1f77b4; stroke: #1f77b4"/>
     <use xlink:href="#m96d6823b29" x="636.543306" y="49.4964" style="fill: #1f77b4; stroke: #1f77b4"/>
     <use xlink:href="#m96d6823b29" x="639.406248" y="50.805285" style="fill: #1f77b4; stroke: #1f77b4"/>
     <use xlink:href="#m96d6823b29" x="642.364622" y="51.409969" style="fill: #1f77b4; stroke: #1f77b4"/>
     <use xlink:href="#m96d6823b29" x="645.322995" y="51.471535" style="fill: #1f77b4; stroke: #1f77b4"/>
     <use xlink:href="#m96d6823b29" x="648.185937" y="51.239678" style="fill: #1f77b4; stroke: #1f77b4"/>
     <use xlink:href="#m96d6823b29" x="651.14431" y="51.01849" style="fill: #1f77b4; stroke: #1f77b4"/>
     <use xlink:href="#m96d6823b29" x="654.007252" y="50.698309" style="fill: #1f77b4; stroke: #1f77b4"/>
     <use xlink:href="#m96d6823b29" x="656.965625" y="50.431263" style="fill: #1f77b4; stroke: #1f77b4"/>
     <use xlink:href="#m96d6823b29" x="659.923999" y="50.469974" style="fill: #1f77b4; stroke: #1f77b4"/>
     <use xlink:href="#m96d6823b29" x="662.596078" y="51.063266" style="fill: #1f77b4; stroke: #1f77b4"/>
     <use xlink:href="#m96d6823b29" x="665.554451" y="51.994902" style="fill: #1f77b4; stroke: #1f77b4"/>
     <use xlink:href="#m96d6823b29" x="668.417393" y="53.241107" style="fill: #1f77b4; stroke: #1f77b4"/>
     <use xlink:href="#m96d6823b29" x="671.375766" y="54.501366" style="fill: #1f77b4; stroke: #1f77b4"/>
     <use xlink:href="#m96d6823b29" x="674.238708" y="55.48057" style="fill: #1f77b4; stroke: #1f77b4"/>
     <use xlink:href="#m96d6823b29" x="677.197081" y="55.696607" style="fill: #1f77b4; stroke: #1f77b4"/>
     <use xlink:href="#m96d6823b29" x="680.155455" y="55.387078" style="fill: #1f77b4; stroke: #1f77b4"/>
    </g>
   </g>
   <g id="matplotlib.axis_1">
    <g id="xtick_1">
     <g id="line2d_1">
      <path d="M 134.097005 318.04 
L 134.097005 25.44 
" clip-path="url(#p1b3360e007)" style="fill: none; stroke: #b0b0b0; stroke-width: 0.8; stroke-linecap: square"/>
     </g>
     <g id="line2d_2">
      <defs>
       <path id="md47c420f2e" d="M 0 0 
L 0 3.5 
" style="stroke: #000000; stroke-width: 0.8"/>
      </defs>
      <g>
       <use xlink:href="#md47c420f2e" x="134.097005" y="318.04" style="stroke: #000000; stroke-width: 0.8"/>
      </g>
     </g>
     <g id="text_1">
      <!-- 2010 -->
      <g transform="translate(121.372005 332.638438) scale(0.1 -0.1)">
       <defs>
        <path id="DejaVuSans-32" d="M 1228 531 
L 3431 531 
L 3431 0 
L 469 0 
L 469 531 
Q 828 903 1448 1529 
Q 2069 2156 2228 2338 
Q 2531 2678 2651 2914 
Q 2772 3150 2772 3378 
Q 2772 3750 2511 3984 
Q 2250 4219 1831 4219 
Q 1534 4219 1204 4116 
Q 875 4013 500 3803 
L 500 4441 
Q 881 4594 1212 4672 
Q 1544 4750 1819 4750 
Q 2544 4750 2975 4387 
Q 3406 4025 3406 3419 
Q 3406 3131 3298 2873 
Q 3191 2616 2906 2266 
Q 2828 2175 2409 1742 
Q 1991 1309 1228 531 
z
" transform="scale(0.015625)"/>
        <path id="DejaVuSans-30" d="M 2034 4250 
Q 1547 4250 1301 3770 
Q 1056 3291 1056 2328 
Q 1056 1369 1301 889 
Q 1547 409 2034 409 
Q 2525 409 2770 889 
Q 3016 1369 3016 2328 
Q 3016 3291 2770 3770 
Q 2525 4250 2034 4250 
z
M 2034 4750 
Q 2819 4750 3233 4129 
Q 3647 3509 3647 2328 
Q 3647 1150 3233 529 
Q 2819 -91 2034 -91 
Q 1250 -91 836 529 
Q 422 1150 422 2328 
Q 422 3509 836 4129 
Q 1250 4750 2034 4750 
z
" transform="scale(0.015625)"/>
        <path id="DejaVuSans-31" d="M 794 531 
L 1825 531 
L 1825 4091 
L 703 3866 
L 703 4441 
L 1819 4666 
L 2450 4666 
L 2450 531 
L 3481 531 
L 3481 0 
L 794 0 
L 794 531 
z
" transform="scale(0.015625)"/>
       </defs>
       <use xlink:href="#DejaVuSans-32"/>
       <use xlink:href="#DejaVuSans-30" x="63.623047"/>
       <use xlink:href="#DejaVuSans-31" x="127.246094"/>
       <use xlink:href="#DejaVuSans-30" x="190.869141"/>
      </g>
     </g>
    </g>
    <g id="xtick_2">
     <g id="line2d_3">
      <path d="M 203.761924 318.04 
L 203.761924 25.44 
" clip-path="url(#p1b3360e007)" style="fill: none; stroke: #b0b0b0; stroke-width: 0.8; stroke-linecap: square"/>
     </g>
     <g id="line2d_4">
      <g>
       <use xlink:href="#md47c420f2e" x="203.761924" y="318.04" style="stroke: #000000; stroke-width: 0.8"/>
      </g>
     </g>
     <g id="text_2">
      <!-- 2012 -->
      <g transform="translate(191.036924 332.638438) scale(0.1 -0.1)">
       <use xlink:href="#DejaVuSans-32"/>
       <use xlink:href="#DejaVuSans-30" x="63.623047"/>
       <use xlink:href="#DejaVuSans-31" x="127.246094"/>
       <use xlink:href="#DejaVuSans-32" x="190.869141"/>
      </g>
     </g>
    </g>
    <g id="xtick_3">
     <g id="line2d_5">
      <path d="M 273.522275 318.04 
L 273.522275 25.44 
" clip-path="url(#p1b3360e007)" style="fill: none; stroke: #b0b0b0; stroke-width: 0.8; stroke-linecap: square"/>
     </g>
     <g id="line2d_6">
      <g>
       <use xlink:href="#md47c420f2e" x="273.522275" y="318.04" style="stroke: #000000; stroke-width: 0.8"/>
      </g>
     </g>
     <g id="text_3">
      <!-- 2014 -->
      <g transform="translate(260.797275 332.638438) scale(0.1 -0.1)">
       <defs>
        <path id="DejaVuSans-34" d="M 2419 4116 
L 825 1625 
L 2419 1625 
L 2419 4116 
z
M 2253 4666 
L 3047 4666 
L 3047 1625 
L 3713 1625 
L 3713 1100 
L 3047 1100 
L 3047 0 
L 2419 0 
L 2419 1100 
L 313 1100 
L 313 1709 
L 2253 4666 
z
" transform="scale(0.015625)"/>
       </defs>
       <use xlink:href="#DejaVuSans-32"/>
       <use xlink:href="#DejaVuSans-30" x="63.623047"/>
       <use xlink:href="#DejaVuSans-31" x="127.246094"/>
       <use xlink:href="#DejaVuSans-34" x="190.869141"/>
      </g>
     </g>
    </g>
    <g id="xtick_4">
     <g id="line2d_7">
      <path d="M 343.187194 318.04 
L 343.187194 25.44 
" clip-path="url(#p1b3360e007)" style="fill: none; stroke: #b0b0b0; stroke-width: 0.8; stroke-linecap: square"/>
     </g>
     <g id="line2d_8">
      <g>
       <use xlink:href="#md47c420f2e" x="343.187194" y="318.04" style="stroke: #000000; stroke-width: 0.8"/>
      </g>
     </g>
     <g id="text_4">
      <!-- 2016 -->
      <g transform="translate(330.462194 332.638438) scale(0.1 -0.1)">
       <defs>
        <path id="DejaVuSans-36" d="M 2113 2584 
Q 1688 2584 1439 2293 
Q 1191 2003 1191 1497 
Q 1191 994 1439 701 
Q 1688 409 2113 409 
Q 2538 409 2786 701 
Q 3034 994 3034 1497 
Q 3034 2003 2786 2293 
Q 2538 2584 2113 2584 
z
M 3366 4563 
L 3366 3988 
Q 3128 4100 2886 4159 
Q 2644 4219 2406 4219 
Q 1781 4219 1451 3797 
Q 1122 3375 1075 2522 
Q 1259 2794 1537 2939 
Q 1816 3084 2150 3084 
Q 2853 3084 3261 2657 
Q 3669 2231 3669 1497 
Q 3669 778 3244 343 
Q 2819 -91 2113 -91 
Q 1303 -91 875 529 
Q 447 1150 447 2328 
Q 447 3434 972 4092 
Q 1497 4750 2381 4750 
Q 2619 4750 2861 4703 
Q 3103 4656 3366 4563 
z
" transform="scale(0.015625)"/>
       </defs>
       <use xlink:href="#DejaVuSans-32"/>
       <use xlink:href="#DejaVuSans-30" x="63.623047"/>
       <use xlink:href="#DejaVuSans-31" x="127.246094"/>
       <use xlink:href="#DejaVuSans-36" x="190.869141"/>
      </g>
     </g>
    </g>
    <g id="xtick_5">
     <g id="line2d_9">
      <path d="M 412.947545 318.04 
L 412.947545 25.44 
" clip-path="url(#p1b3360e007)" style="fill: none; stroke: #b0b0b0; stroke-width: 0.8; stroke-linecap: square"/>
     </g>
     <g id="line2d_10">
      <g>
       <use xlink:href="#md47c420f2e" x="412.947545" y="318.04" style="stroke: #000000; stroke-width: 0.8"/>
      </g>
     </g>
     <g id="text_5">
      <!-- 2018 -->
      <g transform="translate(400.222545 332.638438) scale(0.1 -0.1)">
       <defs>
        <path id="DejaVuSans-38" d="M 2034 2216 
Q 1584 2216 1326 1975 
Q 1069 1734 1069 1313 
Q 1069 891 1326 650 
Q 1584 409 2034 409 
Q 2484 409 2743 651 
Q 3003 894 3003 1313 
Q 3003 1734 2745 1975 
Q 2488 2216 2034 2216 
z
M 1403 2484 
Q 997 2584 770 2862 
Q 544 3141 544 3541 
Q 544 4100 942 4425 
Q 1341 4750 2034 4750 
Q 2731 4750 3128 4425 
Q 3525 4100 3525 3541 
Q 3525 3141 3298 2862 
Q 3072 2584 2669 2484 
Q 3125 2378 3379 2068 
Q 3634 1759 3634 1313 
Q 3634 634 3220 271 
Q 2806 -91 2034 -91 
Q 1263 -91 848 271 
Q 434 634 434 1313 
Q 434 1759 690 2068 
Q 947 2378 1403 2484 
z
M 1172 3481 
Q 1172 3119 1398 2916 
Q 1625 2713 2034 2713 
Q 2441 2713 2670 2916 
Q 2900 3119 2900 3481 
Q 2900 3844 2670 4047 
Q 2441 4250 2034 4250 
Q 1625 4250 1398 4047 
Q 1172 3844 1172 3481 
z
" transform="scale(0.015625)"/>
       </defs>
       <use xlink:href="#DejaVuSans-32"/>
       <use xlink:href="#DejaVuSans-30" x="63.623047"/>
       <use xlink:href="#DejaVuSans-31" x="127.246094"/>
       <use xlink:href="#DejaVuSans-38" x="190.869141"/>
      </g>
     </g>
    </g>
    <g id="xtick_6">
     <g id="line2d_11">
      <path d="M 482.612464 318.04 
L 482.612464 25.44 
" clip-path="url(#p1b3360e007)" style="fill: none; stroke: #b0b0b0; stroke-width: 0.8; stroke-linecap: square"/>
     </g>
     <g id="line2d_12">
      <g>
       <use xlink:href="#md47c420f2e" x="482.612464" y="318.04" style="stroke: #000000; stroke-width: 0.8"/>
      </g>
     </g>
     <g id="text_6">
      <!-- 2020 -->
      <g transform="translate(469.887464 332.638438) scale(0.1 -0.1)">
       <use xlink:href="#DejaVuSans-32"/>
       <use xlink:href="#DejaVuSans-30" x="63.623047"/>
       <use xlink:href="#DejaVuSans-32" x="127.246094"/>
       <use xlink:href="#DejaVuSans-30" x="190.869141"/>
      </g>
     </g>
    </g>
    <g id="xtick_7">
     <g id="line2d_13">
      <path d="M 552.372815 318.04 
L 552.372815 25.44 
" clip-path="url(#p1b3360e007)" style="fill: none; stroke: #b0b0b0; stroke-width: 0.8; stroke-linecap: square"/>
     </g>
     <g id="line2d_14">
      <g>
       <use xlink:href="#md47c420f2e" x="552.372815" y="318.04" style="stroke: #000000; stroke-width: 0.8"/>
      </g>
     </g>
     <g id="text_7">
      <!-- 2022 -->
      <g transform="translate(539.647815 332.638438) scale(0.1 -0.1)">
       <use xlink:href="#DejaVuSans-32"/>
       <use xlink:href="#DejaVuSans-30" x="63.623047"/>
       <use xlink:href="#DejaVuSans-32" x="127.246094"/>
       <use xlink:href="#DejaVuSans-32" x="190.869141"/>
      </g>
     </g>
    </g>
    <g id="xtick_8">
     <g id="line2d_15">
      <path d="M 622.037734 318.04 
L 622.037734 25.44 
" clip-path="url(#p1b3360e007)" style="fill: none; stroke: #b0b0b0; stroke-width: 0.8; stroke-linecap: square"/>
     </g>
     <g id="line2d_16">
      <g>
       <use xlink:href="#md47c420f2e" x="622.037734" y="318.04" style="stroke: #000000; stroke-width: 0.8"/>
      </g>
     </g>
     <g id="text_8">
      <!-- 2024 -->
      <g transform="translate(609.312734 332.638438) scale(0.1 -0.1)">
       <use xlink:href="#DejaVuSans-32"/>
       <use xlink:href="#DejaVuSans-30" x="63.623047"/>
       <use xlink:href="#DejaVuSans-32" x="127.246094"/>
       <use xlink:href="#DejaVuSans-34" x="190.869141"/>
      </g>
     </g>
    </g>
    <g id="xtick_9">
     <g id="line2d_17">
      <path d="M 691.798085 318.04 
L 691.798085 25.44 
" clip-path="url(#p1b3360e007)" style="fill: none; stroke: #b0b0b0; stroke-width: 0.8; stroke-linecap: square"/>
     </g>
     <g id="line2d_18">
      <g>
       <use xlink:href="#md47c420f2e" x="691.798085" y="318.04" style="stroke: #000000; stroke-width: 0.8"/>
      </g>
     </g>
     <g id="text_9">
      <!-- 2026 -->
      <g transform="translate(679.073085 332.638438) scale(0.1 -0.1)">
       <use xlink:href="#DejaVuSans-32"/>
       <use xlink:href="#DejaVuSans-30" x="63.623047"/>
       <use xlink:href="#DejaVuSans-32" x="127.246094"/>
       <use xlink:href="#DejaVuSans-36" x="190.869141"/>
      </g>
     </g>
    </g>
    <g id="text_10">
     <!-- Date -->
     <g transform="translate(377.759219 346.316563) scale(0.1 -0.1)">
      <defs>
       <path id="DejaVuSans-44" d="M 1259 4147 
L 1259 519 
L 2022 519 
Q 2988 519 3436 956 
Q 3884 1394 3884 2338 
Q 3884 3275 3436 3711 
Q 2988 4147 2022 4147 
L 1259 4147 
z
M 628 4666 
L 1925 4666 
Q 3281 4666 3915 4102 
Q 4550 3538 4550 2338 
Q 4550 1131 3912 565 
Q 3275 0 1925 0 
L 628 0 
L 628 4666 
z
" transform="scale(0.015625)"/>
       <path id="DejaVuSans-61" d="M 2194 1759 
Q 1497 1759 1228 1600 
Q 959 1441 959 1056 
Q 959 750 1161 570 
Q 1363 391 1709 391 
Q 2188 391 2477 730 
Q 2766 1069 2766 1631 
L 2766 1759 
L 2194 1759 
z
M 3341 1997 
L 3341 0 
L 2766 0 
L 2766 531 
Q 2569 213 2275 61 
Q 1981 -91 1556 -91 
Q 1019 -91 701 211 
Q 384 513 384 1019 
Q 384 1609 779 1909 
Q 1175 2209 1959 2209 
L 2766 2209 
L 2766 2266 
Q 2766 2663 2505 2880 
Q 2244 3097 1772 3097 
Q 1472 3097 1187 3025 
Q 903 2953 641 2809 
L 641 3341 
Q 956 3463 1253 3523 
Q 1550 3584 1831 3584 
Q 2591 3584 2966 3190 
Q 3341 2797 3341 1997 
z
" transform="scale(0.015625)"/>
       <path id="DejaVuSans-74" d="M 1172 4494 
L 1172 3500 
L 2356 3500 
L 2356 3053 
L 1172 3053 
L 1172 1153 
Q 1172 725 1289 603 
Q 1406 481 1766 481 
L 2356 481 
L 2356 0 
L 1766 0 
Q 1100 0 847 248 
Q 594 497 594 1153 
L 594 3053 
L 172 3053 
L 172 3500 
L 594 3500 
L 594 4494 
L 1172 4494 
z
" transform="scale(0.015625)"/>
       <path id="DejaVuSans-65" d="M 3597 1894 
L 3597 1613 
L 953 1613 
Q 991 1019 1311 708 
Q 1631 397 2203 397 
Q 2534 397 2845 478 
Q 3156 559 3463 722 
L 3463 178 
Q 3153 47 2828 -22 
Q 2503 -91 2169 -91 
Q 1331 -91 842 396 
Q 353 884 353 1716 
Q 353 2575 817 3079 
Q 1281 3584 2069 3584 
Q 2775 3584 3186 3129 
Q 3597 2675 3597 1894 
z
M 3022 2063 
Q 3016 2534 2758 2815 
Q 2500 3097 2075 3097 
Q 1594 3097 1305 2825 
Q 1016 2553 972 2059 
L 3022 2063 
z
" transform="scale(0.015625)"/>
      </defs>
      <use xlink:href="#DejaVuSans-44"/>
      <use xlink:href="#DejaVuSans-61" x="77.001953"/>
      <use xlink:href="#DejaVuSans-74" x="138.28125"/>
      <use xlink:href="#DejaVuSans-65" x="177.490234"/>
     </g>
    </g>
   </g>
   <g id="matplotlib.axis_2">
    <g id="ytick_1">
     <g id="line2d_19">
      <path d="M 70.22 288.705855 
L 709.2 288.705855 
" clip-path="url(#p1b3360e007)" style="fill: none; stroke: #b0b0b0; stroke-width: 0.8; stroke-linecap: square"/>
     </g>
     <g id="line2d_20">
      <defs>
       <path id="m89afafb4d0" d="M 0 0 
L -3.5 0 
" style="stroke: #000000; stroke-width: 0.8"/>
      </defs>
      <g>
       <use xlink:href="#m89afafb4d0" x="70.22" y="288.705855" style="stroke: #000000; stroke-width: 0.8"/>
      </g>
     </g>
     <g id="text_11">
      <!-- 200000 -->
      <g transform="translate(25.045 292.505074) scale(0.1 -0.1)">
       <use xlink:href="#DejaVuSans-32"/>
       <use xlink:href="#DejaVuSans-30" x="63.623047"/>
       <use xlink:href="#DejaVuSans-30" x="127.246094"/>
       <use xlink:href="#DejaVuSans-30" x="190.869141"/>
       <use xlink:href="#DejaVuSans-30" x="254.492188"/>
       <use xlink:href="#DejaVuSans-30" x="318.115234"/>
      </g>
     </g>
    </g>
    <g id="ytick_2">
     <g id="line2d_21">
      <path d="M 70.22 242.245737 
L 709.2 242.245737 
" clip-path="url(#p1b3360e007)" style="fill: none; stroke: #b0b0b0; stroke-width: 0.8; stroke-linecap: square"/>
     </g>
     <g id="line2d_22">
      <g>
       <use xlink:href="#m89afafb4d0" x="70.22" y="242.245737" style="stroke: #000000; stroke-width: 0.8"/>
      </g>
     </g>
     <g id="text_12">
      <!-- 250000 -->
      <g transform="translate(25.045 246.044956) scale(0.1 -0.1)">
       <defs>
        <path id="DejaVuSans-35" d="M 691 4666 
L 3169 4666 
L 3169 4134 
L 1269 4134 
L 1269 2991 
Q 1406 3038 1543 3061 
Q 1681 3084 1819 3084 
Q 2600 3084 3056 2656 
Q 3513 2228 3513 1497 
Q 3513 744 3044 326 
Q 2575 -91 1722 -91 
Q 1428 -91 1123 -41 
Q 819 9 494 109 
L 494 744 
Q 775 591 1075 516 
Q 1375 441 1709 441 
Q 2250 441 2565 725 
Q 2881 1009 2881 1497 
Q 2881 1984 2565 2268 
Q 2250 2553 1709 2553 
Q 1456 2553 1204 2497 
Q 953 2441 691 2322 
L 691 4666 
z
" transform="scale(0.015625)"/>
       </defs>
       <use xlink:href="#DejaVuSans-32"/>
       <use xlink:href="#DejaVuSans-35" x="63.623047"/>
       <use xlink:href="#DejaVuSans-30" x="127.246094"/>
       <use xlink:href="#DejaVuSans-30" x="190.869141"/>
       <use xlink:href="#DejaVuSans-30" x="254.492188"/>
       <use xlink:href="#DejaVuSans-30" x="318.115234"/>
      </g>
     </g>
    </g>
    <g id="ytick_3">
     <g id="line2d_23">
      <path d="M 70.22 195.78562 
L 709.2 195.78562 
" clip-path="url(#p1b3360e007)" style="fill: none; stroke: #b0b0b0; stroke-width: 0.8; stroke-linecap: square"/>
     </g>
     <g id="line2d_24">
      <g>
       <use xlink:href="#m89afafb4d0" x="70.22" y="195.78562" style="stroke: #000000; stroke-width: 0.8"/>
      </g>
     </g>
     <g id="text_13">
      <!-- 300000 -->
      <g transform="translate(25.045 199.584838) scale(0.1 -0.1)">
       <defs>
        <path id="DejaVuSans-33" d="M 2597 2516 
Q 3050 2419 3304 2112 
Q 3559 1806 3559 1356 
Q 3559 666 3084 287 
Q 2609 -91 1734 -91 
Q 1441 -91 1130 -33 
Q 819 25 488 141 
L 488 750 
Q 750 597 1062 519 
Q 1375 441 1716 441 
Q 2309 441 2620 675 
Q 2931 909 2931 1356 
Q 2931 1769 2642 2001 
Q 2353 2234 1838 2234 
L 1294 2234 
L 1294 2753 
L 1863 2753 
Q 2328 2753 2575 2939 
Q 2822 3125 2822 3475 
Q 2822 3834 2567 4026 
Q 2313 4219 1838 4219 
Q 1578 4219 1281 4162 
Q 984 4106 628 3988 
L 628 4550 
Q 988 4650 1302 4700 
Q 1616 4750 1894 4750 
Q 2613 4750 3031 4423 
Q 3450 4097 3450 3541 
Q 3450 3153 3228 2886 
Q 3006 2619 2597 2516 
z
" transform="scale(0.015625)"/>
       </defs>
       <use xlink:href="#DejaVuSans-33"/>
       <use xlink:href="#DejaVuSans-30" x="63.623047"/>
       <use xlink:href="#DejaVuSans-30" x="127.246094"/>
       <use xlink:href="#DejaVuSans-30" x="190.869141"/>
       <use xlink:href="#DejaVuSans-30" x="254.492188"/>
       <use xlink:href="#DejaVuSans-30" x="318.115234"/>
      </g>
     </g>
    </g>
    <g id="ytick_4">
     <g id="line2d_25">
      <path d="M 70.22 149.325502 
L 709.2 149.325502 
" clip-path="url(#p1b3360e007)" style="fill: none; stroke: #b0b0b0; stroke-width: 0.8; stroke-linecap: square"/>
     </g>
     <g id="line2d_26">
      <g>
       <use xlink:href="#m89afafb4d0" x="70.22" y="149.325502" style="stroke: #000000; stroke-width: 0.8"/>
      </g>
     </g>
     <g id="text_14">
      <!-- 350000 -->
      <g transform="translate(25.045 153.124721) scale(0.1 -0.1)">
       <use xlink:href="#DejaVuSans-33"/>
       <use xlink:href="#DejaVuSans-35" x="63.623047"/>
       <use xlink:href="#DejaVuSans-30" x="127.246094"/>
       <use xlink:href="#DejaVuSans-30" x="190.869141"/>
       <use xlink:href="#DejaVuSans-30" x="254.492188"/>
       <use xlink:href="#DejaVuSans-30" x="318.115234"/>
      </g>
     </g>
    </g>
    <g id="ytick_5">
     <g id="line2d_27">
      <path d="M 70.22 102.865384 
L 709.2 102.865384 
" clip-path="url(#p1b3360e007)" style="fill: none; stroke: #b0b0b0; stroke-width: 0.8; stroke-linecap: square"/>
     </g>
     <g id="line2d_28">
      <g>
       <use xlink:href="#m89afafb4d0" x="70.22" y="102.865384" style="stroke: #000000; stroke-width: 0.8"/>
      </g>
     </g>
     <g id="text_15">
      <!-- 400000 -->
      <g transform="translate(25.045 106.664603) scale(0.1 -0.1)">
       <use xlink:href="#DejaVuSans-34"/>
       <use xlink:href="#DejaVuSans-30" x="63.623047"/>
       <use xlink:href="#DejaVuSans-30" x="127.246094"/>
       <use xlink:href="#DejaVuSans-30" x="190.869141"/>
       <use xlink:href="#DejaVuSans-30" x="254.492188"/>
       <use xlink:href="#DejaVuSans-30" x="318.115234"/>
      </g>
     </g>
    </g>
    <g id="ytick_6">
     <g id="line2d_29">
      <path d="M 70.22 56.405267 
L 709.2 56.405267 
" clip-path="url(#p1b3360e007)" style="fill: none; stroke: #b0b0b0; stroke-width: 0.8; stroke-linecap: square"/>
     </g>
     <g id="line2d_30">
      <g>
       <use xlink:href="#m89afafb4d0" x="70.22" y="56.405267" style="stroke: #000000; stroke-width: 0.8"/>
      </g>
     </g>
     <g id="text_16">
      <!-- 450000 -->
      <g transform="translate(25.045 60.204485) scale(0.1 -0.1)">
       <use xlink:href="#DejaVuSans-34"/>
       <use xlink:href="#DejaVuSans-35" x="63.623047"/>
       <use xlink:href="#DejaVuSans-30" x="127.246094"/>
       <use xlink:href="#DejaVuSans-30" x="190.869141"/>
       <use xlink:href="#DejaVuSans-30" x="254.492188"/>
       <use xlink:href="#DejaVuSans-30" x="318.115234"/>
      </g>
     </g>
    </g>
    <g id="text_17">
     <!-- ZHVI -->
     <g transform="translate(18.965312 183.820469) rotate(-90) scale(0.1 -0.1)">
      <defs>
       <path id="DejaVuSans-5a" d="M 359 4666 
L 4025 4666 
L 4025 4184 
L 1075 531 
L 4097 531 
L 4097 0 
L 288 0 
L 288 481 
L 3238 4134 
L 359 4134 
L 359 4666 
z
" transform="scale(0.015625)"/>
       <path id="DejaVuSans-48" d="M 628 4666 
L 1259 4666 
L 1259 2753 
L 3553 2753 
L 3553 4666 
L 4184 4666 
L 4184 0 
L 3553 0 
L 3553 2222 
L 1259 2222 
L 1259 0 
L 628 0 
L 628 4666 
z
" transform="scale(0.015625)"/>
       <path id="DejaVuSans-56" d="M 1831 0 
L 50 4666 
L 709 4666 
L 2188 738 
L 3669 4666 
L 4325 4666 
L 2547 0 
L 1831 0 
z
" transform="scale(0.015625)"/>
       <path id="DejaVuSans-49" d="M 628 4666 
L 1259 4666 
L 1259 0 
L 628 0 
L 628 4666 
z
" transform="scale(0.015625)"/>
      </defs>
      <use xlink:href="#DejaVuSans-5a"/>
      <use xlink:href="#DejaVuSans-48" x="68.505859"/>
      <use xlink:href="#DejaVuSans-56" x="143.701172"/>
      <use xlink:href="#DejaVuSans-49" x="212.109375"/>
     </g>
    </g>
   </g>
   <g id="patch_3">
    <path d="M 70.22 318.04 
L 70.22 25.44 
" style="fill: none; stroke: #000000; stroke-width: 0.8; stroke-linejoin: miter; stroke-linecap: square"/>
   </g>
   <g id="patch_4">
    <path d="M 709.2 318.04 
L 709.2 25.44 
" style="fill: none; stroke: #000000; stroke-width: 0.8; stroke-linejoin: miter; stroke-linecap: square"/>
   </g>
   <g id="patch_5">
    <path d="M 70.22 318.04 
L 709.2 318.04 
" style="fill: none; stroke: #000000; stroke-width: 0.8; stroke-linejoin: miter; stroke-linecap: square"/>
   </g>
   <g id="patch_6">
    <path d="M 70.22 25.44 
L 709.2 25.44 
" style="fill: none; stroke: #000000; stroke-width: 0.8; stroke-linejoin: miter; stroke-linecap: square"/>
   </g>
   <g id="text_18">
    <!-- ZHVI Over Time — Midlothian, TX -->
    <g transform="translate(289.5925 19.44) scale(0.12 -0.12)">
     <defs>
      <path id="DejaVuSans-20" transform="scale(0.015625)"/>
      <path id="DejaVuSans-4f" d="M 2522 4238 
Q 1834 4238 1429 3725 
Q 1025 3213 1025 2328 
Q 1025 1447 1429 934 
Q 1834 422 2522 422 
Q 3209 422 3611 934 
Q 4013 1447 4013 2328 
Q 4013 3213 3611 3725 
Q 3209 4238 2522 4238 
z
M 2522 4750 
Q 3503 4750 4090 4092 
Q 4678 3434 4678 2328 
Q 4678 1225 4090 567 
Q 3503 -91 2522 -91 
Q 1538 -91 948 565 
Q 359 1222 359 2328 
Q 359 3434 948 4092 
Q 1538 4750 2522 4750 
z
" transform="scale(0.015625)"/>
      <path id="DejaVuSans-76" d="M 191 3500 
L 800 3500 
L 1894 563 
L 2988 3500 
L 3597 3500 
L 2284 0 
L 1503 0 
L 191 3500 
z
" transform="scale(0.015625)"/>
      <path id="DejaVuSans-72" d="M 2631 2963 
Q 2534 3019 2420 3045 
Q 2306 3072 2169 3072 
Q 1681 3072 1420 2755 
Q 1159 2438 1159 1844 
L 1159 0 
L 581 0 
L 581 3500 
L 1159 3500 
L 1159 2956 
Q 1341 3275 1631 3429 
Q 1922 3584 2338 3584 
Q 2397 3584 2469 3576 
Q 2541 3569 2628 3553 
L 2631 2963 
z
" transform="scale(0.015625)"/>
      <path id="DejaVuSans-54" d="M -19 4666 
L 3928 4666 
L 3928 4134 
L 2272 4134 
L 2272 0 
L 1638 0 
L 1638 4134 
L -19 4134 
L -19 4666 
z
" transform="scale(0.015625)"/>
      <path id="DejaVuSans-69" d="M 603 3500 
L 1178 3500 
L 1178 0 
L 603 0 
L 603 3500 
z
M 603 4863 
L 1178 4863 
L 1178 4134 
L 603 4134 
L 603 4863 
z
" transform="scale(0.015625)"/>
      <path id="DejaVuSans-6d" d="M 3328 2828 
Q 3544 3216 3844 3400 
Q 4144 3584 4550 3584 
Q 5097 3584 5394 3201 
Q 5691 2819 5691 2113 
L 5691 0 
L 5113 0 
L 5113 2094 
Q 5113 2597 4934 2840 
Q 4756 3084 4391 3084 
Q 3944 3084 3684 2787 
Q 3425 2491 3425 1978 
L 3425 0 
L 2847 0 
L 2847 2094 
Q 2847 2600 2669 2842 
Q 2491 3084 2119 3084 
Q 1678 3084 1418 2786 
Q 1159 2488 1159 1978 
L 1159 0 
L 581 0 
L 581 3500 
L 1159 3500 
L 1159 2956 
Q 1356 3278 1631 3431 
Q 1906 3584 2284 3584 
Q 2666 3584 2933 3390 
Q 3200 3197 3328 2828 
z
" transform="scale(0.015625)"/>
      <path id="DejaVuSans-2014" d="M 313 1978 
L 6088 1978 
L 6088 1528 
L 313 1528 
L 313 1978 
z
" transform="scale(0.015625)"/>
      <path id="DejaVuSans-4d" d="M 628 4666 
L 1569 4666 
L 2759 1491 
L 3956 4666 
L 4897 4666 
L 4897 0 
L 4281 0 
L 4281 4097 
L 3078 897 
L 2444 897 
L 1241 4097 
L 1241 0 
L 628 0 
L 628 4666 
z
" transform="scale(0.015625)"/>
      <path id="DejaVuSans-64" d="M 2906 2969 
L 2906 4863 
L 3481 4863 
L 3481 0 
L 2906 0 
L 2906 525 
Q 2725 213 2448 61 
Q 2172 -91 1784 -91 
Q 1150 -91 751 415 
Q 353 922 353 1747 
Q 353 2572 751 3078 
Q 1150 3584 1784 3584 
Q 2172 3584 2448 3432 
Q 2725 3281 2906 2969 
z
M 947 1747 
Q 947 1113 1208 752 
Q 1469 391 1925 391 
Q 2381 391 2643 752 
Q 2906 1113 2906 1747 
Q 2906 2381 2643 2742 
Q 2381 3103 1925 3103 
Q 1469 3103 1208 2742 
Q 947 2381 947 1747 
z
" transform="scale(0.015625)"/>
      <path id="DejaVuSans-6c" d="M 603 4863 
L 1178 4863 
L 1178 0 
L 603 0 
L 603 4863 
z
" transform="scale(0.015625)"/>
      <path id="DejaVuSans-6f" d="M 1959 3097 
Q 1497 3097 1228 2736 
Q 959 2375 959 1747 
Q 959 1119 1226 758 
Q 1494 397 1959 397 
Q 2419 397 2687 759 
Q 2956 1122 2956 1747 
Q 2956 2369 2687 2733 
Q 2419 3097 1959 3097 
z
M 1959 3584 
Q 2709 3584 3137 3096 
Q 3566 2609 3566 1747 
Q 3566 888 3137 398 
Q 2709 -91 1959 -91 
Q 1206 -91 779 398 
Q 353 888 353 1747 
Q 353 2609 779 3096 
Q 1206 3584 1959 3584 
z
" transform="scale(0.015625)"/>
      <path id="DejaVuSans-68" d="M 3513 2113 
L 3513 0 
L 2938 0 
L 2938 2094 
Q 2938 2591 2744 2837 
Q 2550 3084 2163 3084 
Q 1697 3084 1428 2787 
Q 1159 2491 1159 1978 
L 1159 0 
L 581 0 
L 581 4863 
L 1159 4863 
L 1159 2956 
Q 1366 3272 1645 3428 
Q 1925 3584 2291 3584 
Q 2894 3584 3203 3211 
Q 3513 2838 3513 2113 
z
" transform="scale(0.015625)"/>
      <path id="DejaVuSans-6e" d="M 3513 2113 
L 3513 0 
L 2938 0 
L 2938 2094 
Q 2938 2591 2744 2837 
Q 2550 3084 2163 3084 
Q 1697 3084 1428 2787 
Q 1159 2491 1159 1978 
L 1159 0 
L 581 0 
L 581 3500 
L 1159 3500 
L 1159 2956 
Q 1366 3272 1645 3428 
Q 1925 3584 2291 3584 
Q 2894 3584 3203 3211 
Q 3513 2838 3513 2113 
z
" transform="scale(0.015625)"/>
      <path id="DejaVuSans-2c" d="M 750 794 
L 1409 794 
L 1409 256 
L 897 -744 
L 494 -744 
L 750 256 
L 750 794 
z
" transform="scale(0.015625)"/>
      <path id="DejaVuSans-58" d="M 403 4666 
L 1081 4666 
L 2241 2931 
L 3406 4666 
L 4084 4666 
L 2584 2425 
L 4184 0 
L 3506 0 
L 2194 1984 
L 872 0 
L 191 0 
L 1856 2491 
L 403 4666 
z
" transform="scale(0.015625)"/>
     </defs>
     <use xlink:href="#DejaVuSans-5a"/>
     <use xlink:href="#DejaVuSans-48" x="68.505859"/>
     <use xlink:href="#DejaVuSans-56" x="143.701172"/>
     <use xlink:href="#DejaVuSans-49" x="212.109375"/>
     <use xlink:href="#DejaVuSans-20" x="241.601562"/>
     <use xlink:href="#DejaVuSans-4f" x="273.388672"/>
     <use xlink:href="#DejaVuSans-76" x="352.099609"/>
     <use xlink:href="#DejaVuSans-65" x="411.279297"/>
     <use xlink:href="#DejaVuSans-72" x="472.802734"/>
     <use xlink:href="#DejaVuSans-20" x="513.916016"/>
     <use xlink:href="#DejaVuSans-54" x="545.703125"/>
     <use xlink:href="#DejaVuSans-69" x="603.662109"/>
     <use xlink:href="#DejaVuSans-6d" x="631.445312"/>
     <use xlink:href="#DejaVuSans-65" x="728.857422"/>
     <use xlink:href="#DejaVuSans-20" x="790.380859"/>
     <use xlink:href="#DejaVuSans-2014" x="822.167969"/>
     <use xlink:href="#DejaVuSans-20" x="922.167969"/>
     <use xlink:href="#DejaVuSans-4d" x="953.955078"/>
     <use xlink:href="#DejaVuSans-69" x="1040.234375"/>
     <use xlink:href="#DejaVuSans-64" x="1068.017578"/>
     <use xlink:href="#DejaVuSans-6c" x="1131.494141"/>
     <use xlink:href="#DejaVuSans-6f" x="1159.277344"/>
     <use xlink:href="#DejaVuSans-74" x="1220.458984"/>
     <use xlink:href="#DejaVuSans-68" x="1259.667969"/>
     <use xlink:href="#DejaVuSans-69" x="1323.046875"/>
     <use xlink:href="#DejaVuSans-61" x="1350.830078"/>
     <use xlink:href="#DejaVuSans-6e" x="1412.109375"/>
     <use xlink:href="#DejaVuSans-2c" x="1475.488281"/>
     <use xlink:href="#DejaVuSans-20" x="1507.275391"/>
     <use xlink:href="#DejaVuSans-54" x="1539.0625"/>
     <use xlink:href="#DejaVuSans-58" x="1600.146484"/>
    </g>
   </g>
  </g>
 </g>
 <defs>
  <clipPath id="p1b3360e007">
   <rect x="70.22" y="25.44" width="638.98" height="292.6"/>
  </clipPath>
 </defs>
</svg>
